<svg xmlns="http://www.w3.org/2000/svg" viewBox="0 0 800 600">
  <defs>
    <linearGradient id="bath-bg" x1="0" x2="0" y1="0" y2="1">
      <stop offset="0%" stop-color="#fce9d6" />
      <stop offset="100%" stop-color="#f5cfa1" />
    </linearGradient>
    <linearGradient id="tiles" x1="0" x2="1" y1="0" y2="0">
      <stop offset="0%" stop-color="#d8d8d8" />
      <stop offset="100%" stop-color="#b1b1b1" />
    </linearGradient>
  </defs>
  <rect width="800" height="600" fill="url(#bath-bg)" />
  <g opacity="0.7">
    <rect x="120" y="80" width="560" height="360" fill="url(#tiles)" />
    <g fill="#8b7461" opacity="0.8">
      <rect x="160" y="140" width="80" height="220" />
      <rect x="300" y="150" width="200" height="140" />
      <rect x="540" y="160" width="100" height="200" />
    </g>
  </g>
  <g fill="#6e4c2d" opacity="0.6">
    <circle cx="210" cy="380" r="22" />
    <circle cx="260" cy="340" r="18" />
    <circle cx="360" cy="360" r="26" />
    <circle cx="450" cy="330" r="20" />
    <circle cx="600" cy="320" r="18" />
  </g>
  <g opacity="0.5" fill="#47311d">
    <path d="M190 120h40l-16 28h-28z" />
    <path d="M330 110h80l-24 40h-70z" />
    <path d="M520 130h60l-18 32h-50z" />
  </g>
  <text x="50%" y="70" font-family="'Poppins', sans-serif" font-size="48" fill="#654021" text-anchor="middle">Antes - Baño</text>
  <text x="50%" y="520" font-family="'Poppins', sans-serif" font-size="26" fill="#5b3416" text-anchor="middle">Azulejos con sarro y cristales empañados.</text>
</svg>
