<svg xmlns="http://www.w3.org/2000/svg" viewBox="0 0 800 600">
  <defs>
    <linearGradient id="bath-clean-bg" x1="0" x2="0" y1="0" y2="1">
      <stop offset="0%" stop-color="#f7fdff" />
      <stop offset="100%" stop-color="#dff5ff" />
    </linearGradient>
    <linearGradient id="bath-tiles" x1="0" x2="1" y1="0" y2="1">
      <stop offset="0%" stop-color="#eaf8ff" />
      <stop offset="100%" stop-color="#cfe5ff" />
    </linearGradient>
  </defs>
  <rect width="800" height="600" fill="url(#bath-clean-bg)" />
  <g>
    <rect x="120" y="80" width="560" height="360" rx="20" fill="url(#bath-tiles)" stroke="#bcdfff" stroke-width="6" />
    <g fill="#ffffff" opacity="0.85">
      <rect x="160" y="140" width="80" height="220" rx="16" />
      <rect x="300" y="150" width="200" height="140" rx="16" />
      <rect x="540" y="160" width="100" height="200" rx="16" />
    </g>
  </g>
  <g stroke="#8cd5ff" stroke-width="10" stroke-linecap="round" opacity="0.75">
    <line x1="180" y1="360" x2="220" y2="320" />
    <line x1="320" y1="360" x2="360" y2="320" />
    <line x1="460" y1="360" x2="500" y2="320" />
    <line x1="600" y1="360" x2="640" y2="320" />
  </g>
  <g fill="#9adff8" opacity="0.7">
    <circle cx="200" cy="220" r="12" />
    <circle cx="260" cy="200" r="10" />
    <circle cx="360" cy="240" r="12" />
    <circle cx="460" cy="210" r="14" />
    <circle cx="600" cy="230" r="11" />
  </g>
  <text x="50%" y="70" font-family="'Poppins', sans-serif" font-size="48" fill="#1f6896" text-anchor="middle">Después - Baño</text>
  <text x="50%" y="520" font-family="'Poppins', sans-serif" font-size="26" fill="#1c5680" text-anchor="middle">Azulejos brillantes y cristales sin marcas.</text>
</svg>
