<svg xmlns="http://www.w3.org/2000/svg" viewBox="0 0 800 600">
  <defs>
    <linearGradient id="bg" x1="0" x2="0" y1="0" y2="1">
      <stop offset="0%" stop-color="#f9caca" />
      <stop offset="100%" stop-color="#f3a7a7" />
    </linearGradient>
    <linearGradient id="counter" x1="0" x2="1" y1="0" y2="0">
      <stop offset="0%" stop-color="#b26a42" />
      <stop offset="100%" stop-color="#8c4d2c" />
    </linearGradient>
  </defs>
  <rect width="800" height="600" fill="url(#bg)" />
  <g opacity="0.65">
    <rect x="80" y="120" width="640" height="200" fill="#d0d0d0" />
    <rect x="120" y="160" width="120" height="140" fill="#bbb" />
    <rect x="280" y="160" width="160" height="140" fill="#c2c2c2" />
    <rect x="480" y="160" width="200" height="140" fill="#b5b5b5" />
  </g>
  <rect x="80" y="320" width="640" height="140" fill="url(#counter)" />
  <g fill="#813c3c" opacity="0.6">
    <circle cx="150" cy="360" r="26" />
    <circle cx="220" cy="390" r="18" />
    <circle cx="320" cy="350" r="30" />
    <circle cx="420" cy="410" r="24" />
    <circle cx="520" cy="355" r="22" />
    <circle cx="610" cy="385" r="18" />
    <circle cx="690" cy="360" r="16" />
  </g>
  <g opacity="0.35" fill="#4c2f2f">
    <path d="M160 220h80l-20 40h-60z" />
    <path d="M340 210h100l-30 60h-90z" />
    <path d="M520 230h120l-40 70h-110z" />
  </g>
  <text x="50%" y="70" font-family="'Poppins', sans-serif" font-size="48" fill="#702525" text-anchor="middle">Antes - Cocina</text>
  <text x="50%" y="520" font-family="'Poppins', sans-serif" font-size="26" fill="#5a1a1a" text-anchor="middle">Superficies con grasa, salpicaduras y residuos visibles.</text>
</svg>
