<svg xmlns="http://www.w3.org/2000/svg" viewBox="0 0 800 600">
  <defs>
    <linearGradient id="living-clean-bg" x1="0" x2="0" y1="0" y2="1">
      <stop offset="0%" stop-color="#f9f6ff" />
      <stop offset="100%" stop-color="#e6ddff" />
    </linearGradient>
    <linearGradient id="sofa" x1="0" x2="1" y1="0" y2="1">
      <stop offset="0%" stop-color="#ffffff" />
      <stop offset="100%" stop-color="#e8e0ff" />
    </linearGradient>
  </defs>
  <rect width="800" height="600" fill="url(#living-clean-bg)" />
  <g opacity="0.95">
    <rect x="120" y="220" width="560" height="180" rx="40" fill="url(#sofa)" stroke="#d1c5ff" stroke-width="6" />
    <rect x="140" y="160" width="200" height="120" rx="30" fill="#ffffff" stroke="#d7ccff" stroke-width="4" />
    <rect x="380" y="150" width="240" height="130" rx="30" fill="#ffffff" stroke="#d7ccff" stroke-width="4" />
  </g>
  <g fill="#c4b5ff" opacity="0.7">
    <circle cx="200" cy="260" r="12" />
    <circle cx="260" cy="220" r="10" />
    <circle cx="360" cy="260" r="12" />
    <circle cx="460" cy="230" r="10" />
    <circle cx="560" cy="260" r="12" />
    <circle cx="640" cy="220" r="10" />
  </g>
  <g stroke="#d0c4ff" stroke-width="10" stroke-linecap="round" opacity="0.7">
    <line x1="160" y1="360" x2="210" y2="320" />
    <line x1="300" y1="360" x2="350" y2="320" />
    <line x1="440" y1="360" x2="490" y2="320" />
    <line x1="580" y1="360" x2="630" y2="320" />
  </g>
  <text x="50%" y="90" font-family="'Poppins', sans-serif" font-size="48" fill="#4a388b" text-anchor="middle">Después - Sala</text>
  <text x="50%" y="520" font-family="'Poppins', sans-serif" font-size="26" fill="#3f3175" text-anchor="middle">Ambiente fresco, ordenado y libre de polvo.</text>
</svg>
